<?xml version="1.0" encoding="UTF-8" standalone="no"?>
<svg
   xmlns:dc="http://purl.org/dc/elements/1.1/"
   xmlns:cc="http://creativecommons.org/ns#"
   xmlns:rdf="http://www.w3.org/1999/02/22-rdf-syntax-ns#"
   xmlns:svg="http://www.w3.org/2000/svg"
   xmlns="http://www.w3.org/2000/svg"
   xmlns:sodipodi="http://sodipodi.sourceforge.net/DTD/sodipodi-0.dtd"
   xmlns:inkscape="http://www.inkscape.org/namespaces/inkscape"
   viewBox="0 0 512 512"
   version="1.1"
   id="svg6"
   sodipodi:docname="ios-checkmark-circle-outline.svg"
   inkscape:version="0.92.4 (5da689c313, 2019-01-14)">
  <metadata
     id="metadata12">
    <rdf:RDF>
      <cc:Work
         rdf:about="">
        <dc:format>image/svg+xml</dc:format>
        <dc:type
           rdf:resource="http://purl.org/dc/dcmitype/StillImage" />
      </cc:Work>
    </rdf:RDF>
  </metadata>
  <defs
     id="defs10" />
  <sodipodi:namedview
     pagecolor="#ffffff"
     bordercolor="#666666"
     borderopacity="1"
     objecttolerance="10"
     gridtolerance="10"
     guidetolerance="10"
     inkscape:pageopacity="0"
     inkscape:pageshadow="2"
     inkscape:window-width="3840"
     inkscape:window-height="2004"
     id="namedview8"
     showgrid="false"
     inkscape:zoom="1.3037281"
     inkscape:cx="19.280284"
     inkscape:cy="365.30951"
     inkscape:window-x="-16"
     inkscape:window-y="-16"
     inkscape:window-maximized="1"
     inkscape:current-layer="svg6" />
  <path
     d="M362.6 192.9L345 174.8c-.7-.8-1.8-1.2-2.8-1.2-1.1 0-2.1.4-2.8 1.2l-122 122.9-44.4-44.4c-.8-.8-1.8-1.2-2.8-1.2-1 0-2 .4-2.8 1.2l-17.8 17.8c-1.6 1.6-1.6 4.1 0 5.7l56 56c3.6 3.6 8 5.7 11.7 5.7 5.3 0 9.9-3.9 11.6-5.5h.1l133.7-134.4c1.4-1.7 1.4-4.2-.1-5.7z"
     id="path2"
     style="fill:#00bc00;fill-opacity:1" />
  <path
     d="M256 76c48.1 0 93.3 18.7 127.3 52.7S436 207.9 436 256s-18.7 93.3-52.7 127.3S304.1 436 256 436c-48.1 0-93.3-18.7-127.3-52.7S76 304.1 76 256s18.7-93.3 52.7-127.3S207.9 76 256 76m0-28C141.1 48 48 141.1 48 256s93.1 208 208 208 208-93.1 208-208S370.9 48 256 48z"
     id="path4"
     style="fill:#00bc00;fill-opacity:1" />
</svg>
